<?xml version="1.0" encoding="utf-8"?>
<!-- Generator: Adobe Illustrator 19.2.1, SVG Export Plug-In . SVG Version: 6.00 Build 0)  -->
<svg version="1.1" id="Layer_1" xmlns="http://www.w3.org/2000/svg" xmlns:xlink="http://www.w3.org/1999/xlink" x="0px" y="0px"
	 viewBox="0 0 300 300" style="enable-background:new 0 0 300 300;" xml:space="preserve">
<style type="text/css">
	.st0{fill:#FFFFFF;}
	.st1{fill:#96C127;}
</style>
<g>
	<path class="st0" d="M241.5,225.6c0,18.4,8.7,18.4,11.6,18.4h1.4c2.9,0,11.6,0,11.6-18.4V100.9h-24.5V225.6z"/>
	<path class="st0" d="M235.1,243.6c-2.3-4.4-3.7-10.3-3.7-18v0v-1l-0.1-0.2V46.3H2.8v171.8c0,19.9,15.9,36,35.6,36h213.7L252,254
		c-2.6-0.1-5.1-0.5-7.4-1.5C240.7,250.9,237.5,248,235.1,243.6z M42.6,105.4h41.1v10H42.6V105.4z M42.6,158.8h41.1v10H42.6V158.8z
		 M187.6,215H42.3v-10h145.4V215z M187.6,192.1h-145v-10h145V192.1z M187.6,138.7h-145v-10h145V138.7z"/>
	<path class="st0" d="M253,254.1L253,254.1c-0.2,0-0.4,0-0.6-0.1C252.6,254,252.8,254.1,253,254.1z"/>
	<rect x="42.6" y="105.4" class="st1" width="41.1" height="10"/>
	<rect x="42.6" y="128.7" class="st1" width="145" height="10"/>
	<rect x="42.6" y="158.8" class="st1" width="41.1" height="10"/>
	<rect x="42.3" y="205" class="st1" width="145.4" height="10"/>
	<rect x="42.6" y="182.1" class="st1" width="145" height="10"/>
	<path class="st1" d="M235.2,46.3L235.2,46.3l-3.7,0v178.3v1v0c0,7.6,1.4,13.6,3.7,18c2.3,4.4,5.6,7.3,9.5,8.9
		c2.3,1,4.8,1.4,7.4,1.5c0.1,0,0.3,0,0.4,0c0.2,0,0.4,0.1,0.6,0.1h1.4c7.4,0,14-3.1,17.9-10.5c2.3-4.4,3.7-10.3,3.7-18v0V100.9h22.5
		V46.3H235.2z M266,225.6c0,18.4-8.7,18.4-11.6,18.4H253c-2.9,0-11.6,0-11.6-18.4V100.9H266V225.6z"/>
</g>
</svg>
