<?xml version="1.0" encoding="utf-8"?>
<!-- Generator: Adobe Illustrator 19.2.1, SVG Export Plug-In . SVG Version: 6.00 Build 0)  -->
<svg version="1.1" id="Layer_1" xmlns="http://www.w3.org/2000/svg" xmlns:xlink="http://www.w3.org/1999/xlink" x="0px" y="0px"
	 viewBox="0 0 300 300" style="enable-background:new 0 0 300 300;" xml:space="preserve">
<style type="text/css">
	.st0{fill:#008ED4;}
</style>
<path class="st0" d="M257.7,127.6l41.9-18.1l-17.3-39.9l-41.9,18.1c-8.4-12-19-22-31-29.6L226.1,16L185.7,0l-17,42.8
	c-13-2.1-26.4-2-39.7,0.8L110.9,1.8L71,19l18.1,41.9C77.6,69,67.9,79.1,60.4,90.6L16.5,73.2l-16,40.4L44.4,131
	c-2.4,13.5-2.3,27.5,0.6,41.3L3.1,190.4l17.3,39.9l41.9-18.1c7.8,11.2,17.5,20.5,28.4,27.8l-17,42.8l40.4,16l16.7-42.2
	c13.9,2.7,28.5,2.7,42.8-0.3l18.1,41.9l39.9-17.3l-18-41.9c11.6-8.1,21.3-18.2,28.7-29.7l41,16.3l16-40.4l-41.1-16.3
	C260.7,155.5,260.6,141.5,257.7,127.6z M177.2,209.8c-33,14.2-71.3-0.9-85.7-34c-14.2-33.1,0.9-71.3,33.9-85.7
	c33.1-14.2,71.4,1,85.7,33.9C225.4,157.1,210.2,195.4,177.2,209.8z"/>
</svg>
