<?xml version="1.0" encoding="utf-8"?>
<!-- Generator: Adobe Illustrator 19.2.1, SVG Export Plug-In . SVG Version: 6.00 Build 0)  -->
<svg version="1.1" id="Layer_1" xmlns="http://www.w3.org/2000/svg" xmlns:xlink="http://www.w3.org/1999/xlink" x="0px" y="0px"
	 viewBox="0 0 300 300" style="enable-background:new 0 0 300 300;" xml:space="preserve">
<style type="text/css">
	.st0{fill:#008ED4;}
	.st1{fill:#FFFFFF;}
</style>
<g>
	<g>
		<path class="st0" d="M163.3,26.4v131.5l-93,93c23.8,23.8,56.7,38.5,93,38.5c72.6,0,131.5-58.9,131.5-131.5
			C294.7,85.3,235.9,26.4,163.3,26.4z"/>
		<path class="st0" d="M163.3,294.6c-36.5,0-70.9-14.2-96.7-40.1c-1-1-1.5-2.3-1.5-3.7s0.6-2.7,1.5-3.7l91.4-91.4V26.4
			c0-2.9,2.4-5.3,5.3-5.3c75.4,0,136.7,61.3,136.7,136.7C300,233.3,238.7,294.6,163.3,294.6z M77.8,250.8
			c23.4,21.5,53.5,33.3,85.5,33.3c69.6,0,126.2-56.6,126.2-126.2c0-67.8-53.8-123.4-121-126.1v126.1c0,1.4-0.6,2.7-1.5,3.7
			L77.8,250.8z M163.3,157.9L163.3,157.9L163.3,157.9z"/>
	</g>
	<g>
		<path class="st1" d="M43.8,240.3c-1.4,0-2.7-0.6-3.7-1.5C14.2,213,0,178.6,0,142.1C0,66.7,61.3,5.4,136.7,5.4
			c2.9,0,5.3,2.4,5.3,5.3v131.5c0,1.4-0.6,2.7-1.5,3.7l-93,93C46.5,239.8,45.2,240.3,43.8,240.3z M131.5,16
			c-67.2,2.8-121,58.3-121,126.1c0,32,11.8,62.1,33.3,85.5l87.6-87.6V16H131.5z"/>
	</g>
</g>
</svg>
