<?xml version="1.0" encoding="utf-8"?>
<!-- Generator: Adobe Illustrator 19.2.1, SVG Export Plug-In . SVG Version: 6.00 Build 0)  -->
<svg version="1.1" id="Layer_1" xmlns="http://www.w3.org/2000/svg" xmlns:xlink="http://www.w3.org/1999/xlink" x="0px" y="0px"
	 viewBox="0 0 300 300" style="enable-background:new 0 0 300 300;" xml:space="preserve">
<style type="text/css">
	.st0{fill:#FFFFFF;}
</style>
<g>
	<rect x="22.1" y="192.8" class="st0" width="38.4" height="81.1"/>
	<rect x="94.7" y="120.3" class="st0" width="38.4" height="153.6"/>
	<rect x="167.2" y="185" class="st0" width="38.4" height="88.9"/>
	<rect x="239.8" y="151.4" class="st0" width="38.4" height="122.6"/>
	<path class="st0" d="M186.4,138.5c12.2,0,22-9.8,22.1-22l35.6-17.3c3.9,3.6,9.1,5.8,14.8,5.8c12.2,0,22.1-9.9,22.1-22.2
		c0-12.2-9.9-22.1-22.1-22.1c-12.2,0-22.1,9.9-22.1,22.1c0,0.1,0,0.3,0,0.4l-35.2,17.1c-4-3.8-9.3-6.2-15.3-6.2
		c-3.3,0-6.4,0.8-9.3,2.1l-42.4-38.8c0.8-2.2,1.3-4.6,1.3-7.1c0-12.2-9.9-22.1-22.1-22.1s-22.1,9.9-22.1,22.1c0,3.2,0.7,6.3,2,9.1
		l-44.5,43.9c-2.5-0.9-5.1-1.5-7.9-1.5c-12.2,0-22.1,9.9-22.1,22.2c0,12.2,9.9,22.1,22.1,22.1c12.2,0,22.1-9.9,22.1-22.1
		c0-3-0.6-5.8-1.7-8.5l45-44.4c2.3,0.8,4.6,1.3,7.1,1.3c3.3,0,6.4-0.8,9.2-2.1l42.4,38.9c-0.7,2.2-1.2,4.5-1.2,6.9
		C164.3,128.6,174.2,138.5,186.4,138.5z M259,78.3c2.5,0,4.6,2.1,4.6,4.6c0,2.5-2.1,4.6-4.6,4.6c-2.5,0-4.6-2.1-4.6-4.6
		C254.4,80.3,256.4,78.3,259,78.3z M186.4,111.8c2.5,0,4.6,2.1,4.6,4.6c0,2.5-2.1,4.6-4.6,4.6c-2.5,0-4.6-2.1-4.6-4.6
		C181.8,113.8,183.9,111.8,186.4,111.8z M41.3,128.8c-2.5,0-4.6-2.1-4.6-4.6c0-2.5,2.1-4.6,4.6-4.6c2.5,0,4.6,2.1,4.6,4.6
		C45.9,126.7,43.9,128.8,41.3,128.8z M113.9,55.1c-2.5,0-4.6-2.1-4.6-4.6c0-2.5,2.1-4.6,4.6-4.6c2.5,0,4.6,2.1,4.6,4.6
		C118.5,53,116.4,55.1,113.9,55.1z"/>
</g>
</svg>
