<?xml version="1.0" encoding="utf-8"?>
<!-- Generator: Adobe Illustrator 21.0.0, SVG Export Plug-In . SVG Version: 6.00 Build 0)  -->
<svg version="1.1" id="Layer_1" xmlns="http://www.w3.org/2000/svg" xmlns:xlink="http://www.w3.org/1999/xlink" x="0px" y="0px"
	 viewBox="0 0 300 300" style="enable-background:new 0 0 300 300;" xml:space="preserve">
<style type="text/css">
	.st0{fill:#FFFFFF;}
	.st1{fill:#198DCD;}
</style>
<g>
	<path class="st0" d="M130,300C58.3,300,0,241.7,0,170S58.3,40,130,40c2.8,0,5,2.3,5,5v120h120c2.8,0,5,2.3,5,5
		C260,241.7,201.7,300,130,300z M125,50.1C61.1,52.7,10,105.5,10,170c0,66.1,53.9,120,120,120c64.5,0,117.3-51.2,119.9-115H130
		c-2.8,0-5-2.3-5-5V50.1z"/>
	<g>
		<path class="st1" d="M170,5v125h125C295,60.9,239.1,5,170,5z"/>
		<path class="st1" d="M295,135H170c-2.8,0-5-2.3-5-5V5c0-2.8,2.3-5,5-5c71.6,0,130,58.3,130,130C300,132.8,297.8,135,295,135z
			 M175,125h114.9C287.3,62.8,237.2,12.7,175,10.1L175,125L175,125z"/>
	</g>
	<g>
		<path class="st0" d="M209.9,54.5c2.5-2.8,6.1-4.2,10.7-4.3v-4.6h3.2v4.5c4.6,0.3,8,1.7,10.4,4.1c2.4,2.4,3.7,5.4,3.8,9.4h-6
			c-0.2-1.8-0.6-3.2-1.4-4.5c-1.5-2.3-3.7-3.5-6.9-3.6v16.6c5.3,1.5,8.8,2.9,10.8,4.2c3.1,2.2,4.6,5.3,4.6,9.5c0,6-2,10.4-5.9,12.9
			c-2.2,1.5-5.3,2.4-9.5,2.8v6.7h-3.2v-6.7c-6.7-0.4-11.1-2.8-13.5-7.1c-1.2-2.3-2-5.4-2-9.4h6c0.2,3.1,0.7,5.4,1.5,6.9
			c1.5,2.6,4.1,4.1,7.9,4.4V77.7c-5-0.9-8.6-2.5-10.9-4.7c-2.4-2.2-3.5-5.2-3.5-9C206.1,60.4,207.3,57.3,209.9,54.5z M214.5,68.7
			c1.5,1.2,3.5,2.2,6.1,2.7V55.3c-3,0.1-5.2,1-6.4,2.7s-1.9,3.5-1.9,5.4C212.2,65.7,213,67.5,214.5,68.7z M231.9,92.1
			c0.7-1.4,1.1-2.9,1.1-4.8c0-2.8-1-5-3.1-6.4c-1.2-0.8-3.2-1.7-6.1-2.5v18.1C227.7,96.3,230.4,94.8,231.9,92.1z"/>
	</g>
</g>
</svg>
