<?xml version="1.0" encoding="utf-8"?>
<!-- Generator: Adobe Illustrator 19.2.1, SVG Export Plug-In . SVG Version: 6.00 Build 0)  -->
<svg version="1.1" id="Layer_1" xmlns="http://www.w3.org/2000/svg" xmlns:xlink="http://www.w3.org/1999/xlink" x="0px" y="0px"
	 viewBox="0 0 300 300" style="enable-background:new 0 0 300 300;" xml:space="preserve">
<style type="text/css">
	.st0{fill:#FFFFFF;}
	.st1{fill:#168CCD;}
</style>
<path class="st0" d="M262.7,297.2H32.6c-2.9,0-5.2-2.3-5.2-5.2V9.6c0-2.9,2.3-5.2,5.2-5.2h230.1c2.9,0,5.2,2.3,5.2,5.2V292
	C267.9,294.9,265.6,297.2,262.7,297.2z M37.8,286.7h219.6V14.8H37.8V286.7z"/>
<g>
	
		<ellipse transform="matrix(0.7071 -0.7071 0.7071 0.7071 -21.3691 131.7754)" class="st1" cx="148.4" cy="91.7" rx="47.1" ry="47.1"/>
	<g>
		<path class="st0" d="M138,115c0.2-0.8,0.5-2,0.9-3.4l5.1-18.8c0.1-0.2,0.1-0.4,0.1-0.7c0-0.2,0.1-0.4,0.1-0.6
			c0-1.1-0.4-1.8-1.1-2.1c-0.7-0.3-2-0.4-3.9-0.5v-2.2c1.6-0.1,3.8-0.3,6.8-0.7c3-0.3,5.1-0.6,6.4-0.9l3.6-0.7l-6.5,23.8
			c-0.5,2-0.9,3.5-1.1,4.2c-0.5,2-0.7,3.3-0.7,3.9c0,0.6,0.1,1,0.4,1.2c0.3,0.2,0.6,0.3,0.9,0.3c0.8,0,1.9-0.7,3.2-2.2
			c1.3-1.4,2.4-3,3.3-4.5l1.8,1.2c-2.7,4-4.8,6.7-6.3,8.1c-2.4,2.3-4.9,3.4-7.6,3.4c-1.5,0-2.9-0.5-4.1-1.4
			c-1.2-0.9-1.8-2.4-1.8-4.3C137.5,117.5,137.6,116.5,138,115z M157.6,67.5c1.1,1.1,1.6,2.4,1.6,4c0,1.6-0.5,2.9-1.6,4
			c-1.1,1.1-2.4,1.7-4,1.7s-2.9-0.6-4-1.7c-1.1-1.1-1.7-2.4-1.7-4c0-1.6,0.6-2.9,1.7-4c1.1-1.1,2.4-1.6,4-1.6S156.6,66.4,157.6,67.5
			z"/>
	</g>
	<rect x="79.6" y="162.5" class="st0" width="136" height="5.2"/>
	<rect x="79.6" y="188.7" class="st0" width="136" height="5.2"/>
	<rect x="79.6" y="214.8" class="st0" width="136" height="5.2"/>
	<rect x="79.6" y="241" class="st0" width="136" height="5.2"/>
</g>
</svg>
