<?xml version="1.0" encoding="utf-8"?>
<!-- Generator: Adobe Illustrator 19.2.1, SVG Export Plug-In . SVG Version: 6.00 Build 0)  -->
<svg version="1.1" id="Layer_1" xmlns="http://www.w3.org/2000/svg" xmlns:xlink="http://www.w3.org/1999/xlink" x="0px" y="0px"
	 viewBox="0 0 300 300" style="enable-background:new 0 0 300 300;" xml:space="preserve">
<style type="text/css">
	.st0{fill:#FFFFFF;}
	.st1{fill:#A4C73C;}
</style>
<path class="st0" d="M291.1,277.5H8.9c-2.6,0-4.7-2.1-4.7-4.7V28.2c0-2.6,2.1-4.7,4.7-4.7s4.7,2.1,4.7,4.7v239.9h277.5
	c2.6,0,4.7,2.1,4.7,4.7S293.7,277.5,291.1,277.5z"/>
<path class="st1" d="M190.5,234c-2.1,0-4-1.4-4.5-3.5L147.4,86.8l-41.1,106.5c-0.7,1.9-2.6,3.1-4.6,3c-2-0.1-3.7-1.4-4.3-3.3
	l-20.3-66l-7.3,33.5c-0.5,2.2-2.4,3.7-4.6,3.7H23c-2.6,0-4.7-2.1-4.7-4.7c0-2.6,2.1-4.7,4.7-4.7h38.4l10.4-47.3
	c0.5-2.1,2.3-3.6,4.4-3.7c2.1-0.1,4.1,1.3,4.7,3.3l21.6,70.1L143.8,70c0.7-1.9,2.6-3.1,4.6-3c2,0.1,3.8,1.5,4.3,3.5L190,209
	l20.7-99.1c0.4-1.8,1.8-3.2,3.6-3.6c1.8-0.4,3.7,0.3,4.8,1.8l29.7,40.4h42.3c2.6,0,4.7,2.1,4.7,4.7c0,2.6-2.1,4.7-4.7,4.7h-44.7
	c-1.5,0-2.9-0.7-3.8-1.9l-24.9-33.9l-22.6,108.1c-0.4,2.1-2.3,3.7-4.5,3.7C190.6,234,190.6,234,190.5,234z"/>
</svg>
