<?xml version="1.0" encoding="utf-8"?>
<!-- Generator: Adobe Illustrator 21.0.0, SVG Export Plug-In . SVG Version: 6.00 Build 0)  -->
<svg version="1.1" id="Layer_1" xmlns="http://www.w3.org/2000/svg" xmlns:xlink="http://www.w3.org/1999/xlink" x="0px" y="0px"
	 viewBox="0 0 300 300" style="enable-background:new 0 0 300 300;" xml:space="preserve">
<style type="text/css">
	.st0{fill:#FFFFFF;}
	.st1{fill:#008ED3;}
</style>
<path class="st0" d="M265.2,296.6H34.7c-2.9,0-5.2-2.3-5.2-5.2V8.5c0-2.9,2.3-5.2,5.2-5.2h230.5c2.9,0,5.2,2.3,5.2,5.2v282.9
	C270.4,294.2,268,296.6,265.2,296.6z M39.9,286.1h220V13.7h-220C39.9,13.7,39.9,286.1,39.9,286.1z"/>
<rect x="81.8" y="160.5" class="st0" width="136.2" height="5.2"/>
<rect x="81.8" y="187" class="st0" width="136.2" height="5.2"/>
<rect x="81.8" y="213.5" class="st0" width="136.2" height="5.2"/>
<rect x="81.8" y="240.1" class="st0" width="136.2" height="5.2"/>
<path class="st1" d="M181.3,62.4h-10.5V51.9h10.5V62.4z M160.4,62.4h-10.5V51.9h10.5V62.4z M139.4,62.4H129V51.9h10.5v10.5H139.4z
	 M118.5,62.4H108V51.9h10.5V62.4z"/>
<rect x="81.8" y="81" class="st0" width="136.2" height="5.2"/>
<rect x="81.8" y="107.5" class="st0" width="136.2" height="5.2"/>
<rect x="81.8" y="134" class="st0" width="136.2" height="5.2"/>
</svg>
