<?xml version="1.0" encoding="utf-8"?>
<!-- Generator: Adobe Illustrator 19.2.1, SVG Export Plug-In . SVG Version: 6.00 Build 0)  -->
<svg version="1.1" id="Layer_1" xmlns="http://www.w3.org/2000/svg" xmlns:xlink="http://www.w3.org/1999/xlink" x="0px" y="0px"
	 viewBox="0 0 300 300" style="enable-background:new 0 0 300 300;" xml:space="preserve">
<style type="text/css">
	.st0{fill:#008ED4;}
</style>
<path class="st0" d="M287.4,240.2l-69.3-69.3c9-16.4,14.2-35.2,14.2-55.2C232.3,52.4,181,1.2,117.8,1.2C54.5,1.2,3.2,52.4,3.2,115.7
	s51.3,114.5,114.6,114.6c17.7,0,34.4-4.1,49.3-11.3l70.8,70.8c6.8,6.8,15.8,10.3,24.8,10.3c8.9,0,17.9-3.4,24.8-10.3
	C301.1,276.1,301.1,253.9,287.4,240.2z M150.6,188c-10,4.6-21.1,7.2-32.8,7.2c-44-0.1-79.5-35.6-79.5-79.5
	c0.1-43.9,35.6-79.5,79.5-79.5c43.9,0.1,79.4,35.6,79.5,79.5c0,13.5-3.5,26.3-9.4,37.4C179.7,168.5,166.5,180.8,150.6,188z"/>
</svg>
