<?xml version="1.0" encoding="utf-8"?>
<!-- Generator: Adobe Illustrator 19.2.1, SVG Export Plug-In . SVG Version: 6.00 Build 0)  -->
<svg version="1.1" id="Layer_1" xmlns="http://www.w3.org/2000/svg" xmlns:xlink="http://www.w3.org/1999/xlink" x="0px" y="0px"
	 viewBox="0 0 300 300" style="enable-background:new 0 0 300 300;" xml:space="preserve">
<style type="text/css">
	.st0{fill:#FFFFFF;}
	.st1{fill:#8DC642;}
</style>
<path class="st0" d="M133.6,245H35.9V13.4h183.4v145.9c3.4,2,6.6,4.3,9.7,7V8.6c0-2.7-2.2-4.8-4.8-4.8h-193c-2.7,0-4.8,2.2-4.8,4.8
	v241.3c0,2.7,2.2,4.8,4.8,4.8h109.4C137.9,251.6,135.5,248.4,133.6,245z"/>
<g>
	<path class="st0" d="M187.7,266.4c-13.6,0-27.2-5.2-37.5-15.5c-10-10-15.5-23.4-15.5-37.5s5.5-27.5,15.5-37.5
		c20.7-20.7,54.4-20.7,75.1,0c10,10,15.5,23.4,15.5,37.5s-5.5,27.5-15.5,37.5C214.8,261.2,201.2,266.4,187.7,266.4z M187.7,170
		c-11.1,0-22.2,4.2-30.7,12.7c-8.2,8.2-12.7,19.1-12.7,30.7c0,11.6,4.5,22.5,12.7,30.7c16.9,16.9,44.5,16.9,61.4,0
		c8.2-8.2,12.7-19.1,12.7-30.7c0-11.6-4.5-22.5-12.7-30.7C209.9,174.2,198.8,170,187.7,170z"/>
	<g>
		<path class="st0" d="M270.1,285l-10.8,10.8c-0.8,0.8-2.1,0.8-2.8,0l-38.1-38.1c-0.8-0.8-0.8-2.1,0-2.8l10.8-10.8
			c0.8-0.8,2.1-0.8,2.8,0l38.1,38.1C270.9,283,270.9,284.2,270.1,285z"/>
		<path class="st0" d="M257.9,298.1c-3.7,0-7.4-1.4-10.2-4.2l-27.3-27.3c-5.6-5.6-5.6-14.8,0-20.5c5.6-5.6,14.8-5.6,20.5,0
			l27.3,27.3c2.7,2.7,4.2,6.4,4.2,10.2c0,3.9-1.5,7.5-4.2,10.2C265.3,296.7,261.6,298.1,257.9,298.1z M230.6,251.5
			c-1.2,0-2.5,0.5-3.4,1.4c-1.9,1.9-1.9,4.9,0,6.8l27.3,27.3c1.9,1.9,4.9,1.9,6.8,0c0.9-0.9,1.4-2.1,1.4-3.4s-0.5-2.5-1.4-3.4
			L234,252.9C233.1,252,231.8,251.5,230.6,251.5z"/>
	</g>
</g>
<path class="st0" d="M180.7,137.4H74.5c-1.3,0-2.4-1.1-2.4-2.4c0-1.3,1.1-2.4,2.4-2.4h106.2c1.3,0,2.4,1.1,2.4,2.4
	C183.1,136.4,182,137.4,180.7,137.4z"/>
<g>
	<rect x="89.8" y="99.6" class="st0" width="14.5" height="29"/>
	<rect x="120.4" y="83.6" class="st0" width="14.5" height="45"/>
	<rect x="150.9" y="67.5" class="st1" width="14.5" height="61.1"/>
</g>
</svg>
