<?xml version="1.0" encoding="utf-8"?>
<!-- Generator: Adobe Illustrator 19.2.1, SVG Export Plug-In . SVG Version: 6.00 Build 0)  -->
<svg version="1.1" id="Layer_1" xmlns="http://www.w3.org/2000/svg" xmlns:xlink="http://www.w3.org/1999/xlink" x="0px" y="0px"
	 viewBox="0 0 300 300" style="enable-background:new 0 0 300 300;" xml:space="preserve">
<style type="text/css">
	.st0{fill:#008ED4;}
</style>
<g>
	<path class="st0" d="M288.2,91.9c-15.8-36.8-42.6-63.6-79.8-79.5c-18.6-7.9-37.8-12-58.2-12c-20.3,0-39.6,4-58.2,12
		C55.2,28.3,28.1,55,12.2,91.9c-7.9,18.5-11.8,37.8-11.8,58.2c0,20.3,3.9,39.8,11.8,58.3c15.8,36.9,43,63.8,79.8,79.7
		c18.6,8,37.9,11.9,58.2,11.9s39.6-4,58.2-11.9c37.2-15.8,64-42.8,79.8-79.7c8-18.5,12-38,12-58.3S296.1,110.5,288.2,91.9
		L288.2,91.9z M100.4,28.4C87.4,44.8,78,65.6,71.9,90.8H32.7C47.1,62.8,71.4,40.3,100.4,28.4L100.4,28.4z M18.6,150.1
		c0-14.3,2.3-28,6.7-41.3h42.9c-2.1,13.9-3.1,27.7-3.1,41.3c0,13.4,1,27,3.1,41H25C20.7,177.8,18.6,164,18.6,150.1L18.6,150.1z
		 M32.7,209.1h39.2c6.1,25.7,15.6,46.9,28.5,63.1C70.9,259.9,46.6,237.5,32.7,209.1L32.7,209.1z M141,280.4
		c-10.7-3.1-20.7-11-29.7-23.7c-9-12.8-15.9-28.7-20.6-47.5H141V280.4z M141,191.1H86.6c-2.1-14.6-3.3-28.2-3.3-41
		c0-13.8,1.2-27.5,3.6-41.3H141V191.1z M141,90.8H90.7c5.1-18.7,12-34.4,21-47c9.1-12.8,18.7-20.6,29.3-23.6V90.8z M267.9,90.8
		h-39.2c-6.1-25.2-15.6-46.1-28.5-62.4C229.2,40.3,253.4,62.8,267.9,90.8L267.9,90.8z M159.5,20.2c10.7,3,20.3,10.8,29.3,23.6
		c9,12.6,15.9,28.4,21,47h-50.3V20.2z M159.5,108.8h54.1c2.5,13.8,3.6,27.5,3.6,41.3c0,12.8-1.2,26.4-3.3,41h-54.4V108.8z
		 M159.5,280.4v-71.3h50.3C205,228,198,243.8,189,256.6C180.1,269.5,170.4,277.4,159.5,280.4L159.5,280.4z M200.2,272.2
		c13-16.2,22.4-37.4,28.5-63.1h39.2C253.9,237.5,229.7,259.9,200.2,272.2L200.2,272.2z M275.6,191.1h-43.3c2.1-13.9,3.1-27.5,3.1-41
		c0-13.6-1-27.4-3.1-41.3h42.9c4.4,13.3,6.7,27,6.7,41.3C282,164,279.8,177.8,275.6,191.1L275.6,191.1z"/>
</g>
</svg>
